<mxfile host="app.diagrams.net" agent="Mozilla/5.0 (Macintosh; Intel Mac OS X 10_15_7) AppleWebKit/605.1.15 (KHTML, like Gecko) Version/18.4 Safari/605.1.15" version="27.2.0">
  <diagram name="Page-1" id="YXr9S64uBO5CTHAe_Vh5">
    <mxGraphModel dx="1864" dy="1618" grid="1" gridSize="10" guides="1" tooltips="1" connect="1" arrows="1" fold="1" page="1" pageScale="1" pageWidth="850" pageHeight="1100" math="0" shadow="0">
      <root>
        <mxCell id="0" />
        <mxCell id="1" parent="0" />
        <mxCell id="I5ikPtnwgpSH0SJJi7Dr-1" value="" style="edgeStyle=orthogonalEdgeStyle;rounded=0;orthogonalLoop=1;jettySize=auto;html=1;" parent="1" source="I5ikPtnwgpSH0SJJi7Dr-3" target="I5ikPtnwgpSH0SJJi7Dr-27" edge="1">
          <mxGeometry relative="1" as="geometry" />
        </mxCell>
        <mxCell id="I5ikPtnwgpSH0SJJi7Dr-2" value="" style="edgeStyle=orthogonalEdgeStyle;rounded=0;orthogonalLoop=1;jettySize=auto;html=1;" parent="1" source="I5ikPtnwgpSH0SJJi7Dr-3" target="I5ikPtnwgpSH0SJJi7Dr-27" edge="1">
          <mxGeometry relative="1" as="geometry" />
        </mxCell>
        <mxCell id="I5ikPtnwgpSH0SJJi7Dr-3" value="E" style="ellipse;whiteSpace=wrap;html=1;aspect=fixed;strokeWidth=2;fontSize=27;fillColor=light-dark(#FFFFFF,#1000FF);fontColor=light-dark(#000000,#FFFFFF);strokeColor=light-dark(#000000,#FFFFFF);" parent="1" vertex="1">
          <mxGeometry x="505" y="730" width="80" height="80" as="geometry" />
        </mxCell>
        <mxCell id="I5ikPtnwgpSH0SJJi7Dr-4" value="N" style="ellipse;whiteSpace=wrap;html=1;aspect=fixed;strokeWidth=2;fontSize=27;fillColor=light-dark(#FFFFFF,#02B006);fontColor=light-dark(#000000,#FFFFFF);strokeColor=default;align=center;verticalAlign=middle;fontFamily=Helvetica;" parent="1" vertex="1">
          <mxGeometry x="890" y="485" width="80" height="80" as="geometry" />
        </mxCell>
        <mxCell id="I5ikPtnwgpSH0SJJi7Dr-5" value="" style="edgeStyle=orthogonalEdgeStyle;rounded=0;orthogonalLoop=1;jettySize=auto;html=1;entryX=0;entryY=0.5;entryDx=0;entryDy=0;strokeWidth=3;" parent="1" source="I5ikPtnwgpSH0SJJi7Dr-6" target="I5ikPtnwgpSH0SJJi7Dr-18" edge="1">
          <mxGeometry relative="1" as="geometry">
            <mxPoint x="539.9999999999998" y="700" as="targetPoint" />
            <Array as="points">
              <mxPoint x="630" y="650" />
              <mxPoint x="630" y="650" />
            </Array>
          </mxGeometry>
        </mxCell>
        <mxCell id="I5ikPtnwgpSH0SJJi7Dr-6" value="A" style="ellipse;whiteSpace=wrap;html=1;aspect=fixed;strokeWidth=2;fontSize=27;fillColor=light-dark(#FFFFFF,#FF0800);fontColor=light-dark(#000000,#FFFFFF);strokeColor=default;align=center;verticalAlign=middle;fontFamily=Helvetica;" parent="1" vertex="1">
          <mxGeometry x="505" y="610" width="80" height="80" as="geometry" />
        </mxCell>
        <mxCell id="I5ikPtnwgpSH0SJJi7Dr-7" value="" style="endArrow=classic;html=1;rounded=0;exitX=1;exitY=0.5;exitDx=0;exitDy=0;entryX=0;entryY=0.5;entryDx=0;entryDy=0;strokeWidth=3;fontSize=27;fontColor=light-dark(#000000,#000000);endSize=6;" parent="1" source="I5ikPtnwgpSH0SJJi7Dr-14" target="I5ikPtnwgpSH0SJJi7Dr-3" edge="1">
          <mxGeometry width="50" height="50" relative="1" as="geometry">
            <mxPoint x="590.0000000000002" y="770" as="sourcePoint" />
            <mxPoint x="990" y="680" as="targetPoint" />
          </mxGeometry>
        </mxCell>
        <mxCell id="I5ikPtnwgpSH0SJJi7Dr-9" value="" style="edgeStyle=orthogonalEdgeStyle;rounded=0;orthogonalLoop=1;jettySize=auto;html=1;strokeWidth=3;endSize=6;" parent="1" source="I5ikPtnwgpSH0SJJi7Dr-10" target="I5ikPtnwgpSH0SJJi7Dr-4" edge="1">
          <mxGeometry relative="1" as="geometry" />
        </mxCell>
        <mxCell id="I5ikPtnwgpSH0SJJi7Dr-10" value="M" style="ellipse;whiteSpace=wrap;html=1;aspect=fixed;strokeWidth=2;fontSize=27;fillColor=light-dark(#FFFFFF,#02B006);fontColor=light-dark(#000000,#FFFFFF);strokeColor=default;align=center;verticalAlign=middle;fontFamily=Helvetica;" parent="1" vertex="1">
          <mxGeometry x="770" y="485" width="80" height="80" as="geometry" />
        </mxCell>
        <mxCell id="I5ikPtnwgpSH0SJJi7Dr-11" value="&lt;font face=&quot;Courier New&quot;&gt;topic2&lt;/font&gt;" style="text;html=1;align=center;verticalAlign=middle;resizable=0;points=[];autosize=1;strokeColor=none;fillColor=none;fontSize=22;" parent="1" vertex="1">
          <mxGeometry x="990" y="505" width="100" height="40" as="geometry" />
        </mxCell>
        <mxCell id="I5ikPtnwgpSH0SJJi7Dr-12" value="&lt;font face=&quot;Courier New&quot;&gt;topic, origin/topic&lt;/font&gt;" style="text;html=1;align=center;verticalAlign=middle;resizable=0;points=[];autosize=1;strokeColor=none;fillColor=none;fontSize=22;" parent="1" vertex="1">
          <mxGeometry x="860" y="630" width="270" height="40" as="geometry" />
        </mxCell>
        <mxCell id="I5ikPtnwgpSH0SJJi7Dr-13" value="" style="edgeStyle=orthogonalEdgeStyle;rounded=0;orthogonalLoop=1;jettySize=auto;html=1;dashed=1;strokeWidth=3;" parent="1" target="I5ikPtnwgpSH0SJJi7Dr-14" edge="1">
          <mxGeometry relative="1" as="geometry">
            <mxPoint x="300" y="770" as="sourcePoint" />
            <Array as="points">
              <mxPoint x="290" y="770" />
              <mxPoint x="290" y="770" />
            </Array>
          </mxGeometry>
        </mxCell>
        <mxCell id="I5ikPtnwgpSH0SJJi7Dr-14" value="D" style="ellipse;whiteSpace=wrap;html=1;aspect=fixed;strokeWidth=2;fontSize=27;fillColor=light-dark(#FFFFFF,#1000FF);fontColor=light-dark(#000000,#FFFFFF);resizeWidth=0;strokeColor=light-dark(#000000,#FFFFFF);" parent="1" vertex="1">
          <mxGeometry x="370" y="730" width="80" height="80" as="geometry" />
        </mxCell>
        <mxCell id="I5ikPtnwgpSH0SJJi7Dr-16" value="" style="endArrow=classic;html=1;rounded=0;entryX=0;entryY=0.5;entryDx=0;entryDy=0;exitX=1;exitY=0.5;exitDx=0;exitDy=0;strokeWidth=3;startArrow=oval;startFill=1;fontSize=27;fontColor=light-dark(#000000,#000000);endSize=6;" parent="1" source="I5ikPtnwgpSH0SJJi7Dr-27" target="I5ikPtnwgpSH0SJJi7Dr-17" edge="1">
          <mxGeometry width="50" height="50" relative="1" as="geometry">
            <mxPoint x="995" y="770" as="sourcePoint" />
            <mxPoint x="1220" y="770" as="targetPoint" />
          </mxGeometry>
        </mxCell>
        <mxCell id="I5ikPtnwgpSH0SJJi7Dr-17" value="G" style="ellipse;whiteSpace=wrap;html=1;aspect=fixed;strokeWidth=2;fontSize=27;fillColor=light-dark(#FFFFFF,#1000FF);fontColor=light-dark(#000000,#FFFFFF);strokeColor=light-dark(#000000,#FFFFFF);" parent="1" vertex="1">
          <mxGeometry x="750" y="730" width="80" height="80" as="geometry" />
        </mxCell>
        <mxCell id="rN_nmjMCWlHx2FWggs9E-5" value="" style="edgeStyle=orthogonalEdgeStyle;rounded=0;orthogonalLoop=1;jettySize=auto;html=1;strokeColor=default;strokeWidth=3;align=center;verticalAlign=middle;fontFamily=Helvetica;fontSize=11;fontColor=default;labelBackgroundColor=default;endArrow=classic;" edge="1" parent="1" source="I5ikPtnwgpSH0SJJi7Dr-18" target="rN_nmjMCWlHx2FWggs9E-4">
          <mxGeometry relative="1" as="geometry">
            <Array as="points">
              <mxPoint x="750" y="650" />
              <mxPoint x="750" y="650" />
            </Array>
          </mxGeometry>
        </mxCell>
        <mxCell id="I5ikPtnwgpSH0SJJi7Dr-18" value="B" style="ellipse;whiteSpace=wrap;html=1;aspect=fixed;strokeWidth=2;fontSize=27;fillColor=light-dark(#FFFFFF,#FF0800);fontColor=light-dark(#000000,#FFFFFF);strokeColor=default;align=center;verticalAlign=middle;fontFamily=Helvetica;" parent="1" vertex="1">
          <mxGeometry x="641" y="610" width="80" height="80" as="geometry" />
        </mxCell>
        <mxCell id="I5ikPtnwgpSH0SJJi7Dr-20" value="" style="edgeStyle=orthogonalEdgeStyle;rounded=0;orthogonalLoop=1;jettySize=auto;html=1;strokeWidth=3;" parent="1" source="I5ikPtnwgpSH0SJJi7Dr-21" target="I5ikPtnwgpSH0SJJi7Dr-10" edge="1">
          <mxGeometry relative="1" as="geometry" />
        </mxCell>
        <mxCell id="I5ikPtnwgpSH0SJJi7Dr-21" value="L" style="ellipse;whiteSpace=wrap;html=1;aspect=fixed;strokeWidth=2;fontSize=27;fillColor=light-dark(#FFFFFF,#02B006);fontColor=light-dark(#000000,#FFFFFF);strokeColor=default;align=center;verticalAlign=middle;fontFamily=Helvetica;" parent="1" vertex="1">
          <mxGeometry x="650" y="485" width="80" height="80" as="geometry" />
        </mxCell>
        <mxCell id="I5ikPtnwgpSH0SJJi7Dr-26" value="" style="endArrow=classic;html=1;rounded=0;entryX=0;entryY=0.5;entryDx=0;entryDy=0;exitX=1;exitY=0.5;exitDx=0;exitDy=0;strokeWidth=3;startArrow=oval;startFill=1;fontSize=27;fontColor=light-dark(#000000,#000000);endSize=6;" parent="1" source="I5ikPtnwgpSH0SJJi7Dr-3" target="I5ikPtnwgpSH0SJJi7Dr-27" edge="1">
          <mxGeometry width="50" height="50" relative="1" as="geometry">
            <mxPoint x="865" y="770" as="sourcePoint" />
            <mxPoint x="1030" y="770" as="targetPoint" />
          </mxGeometry>
        </mxCell>
        <mxCell id="I5ikPtnwgpSH0SJJi7Dr-27" value="F" style="ellipse;whiteSpace=wrap;html=1;aspect=fixed;strokeWidth=2;fontSize=27;fillColor=light-dark(#FFFFFF,#1000FF);fontColor=light-dark(#000000,#FFFFFF);strokeColor=light-dark(#000000,#FFFFFF);" parent="1" vertex="1">
          <mxGeometry x="627" y="730" width="80" height="80" as="geometry" />
        </mxCell>
        <mxCell id="rN_nmjMCWlHx2FWggs9E-2" value="&lt;font face=&quot;Courier New&quot;&gt;main&lt;/font&gt;" style="text;html=1;align=center;verticalAlign=middle;resizable=0;points=[];autosize=1;strokeColor=none;fillColor=none;fontSize=22;" vertex="1" parent="1">
          <mxGeometry x="860" y="750" width="80" height="40" as="geometry" />
        </mxCell>
        <mxCell id="rN_nmjMCWlHx2FWggs9E-4" value="C" style="ellipse;whiteSpace=wrap;html=1;aspect=fixed;strokeWidth=2;fontSize=27;fillColor=light-dark(#FFFFFF,#FF0800);fontColor=light-dark(#000000,#FFFFFF);strokeColor=default;align=center;verticalAlign=middle;fontFamily=Helvetica;" vertex="1" parent="1">
          <mxGeometry x="765" y="610" width="80" height="80" as="geometry" />
        </mxCell>
        <mxCell id="rN_nmjMCWlHx2FWggs9E-6" value="" style="edgeStyle=orthogonalEdgeStyle;rounded=0;orthogonalLoop=1;jettySize=auto;html=1;entryX=0;entryY=0.5;entryDx=0;entryDy=0;strokeWidth=3;exitX=1;exitY=0.5;exitDx=0;exitDy=0;curved=1;" edge="1" parent="1" source="I5ikPtnwgpSH0SJJi7Dr-14" target="I5ikPtnwgpSH0SJJi7Dr-6">
          <mxGeometry relative="1" as="geometry">
            <mxPoint x="656" y="710" as="targetPoint" />
            <mxPoint x="620" y="710" as="sourcePoint" />
          </mxGeometry>
        </mxCell>
        <mxCell id="rN_nmjMCWlHx2FWggs9E-7" value="" style="edgeStyle=orthogonalEdgeStyle;rounded=0;orthogonalLoop=1;jettySize=auto;html=1;entryX=0;entryY=0.5;entryDx=0;entryDy=0;strokeWidth=3;exitX=1;exitY=0.5;exitDx=0;exitDy=0;curved=1;" edge="1" parent="1" source="I5ikPtnwgpSH0SJJi7Dr-6" target="I5ikPtnwgpSH0SJJi7Dr-21">
          <mxGeometry relative="1" as="geometry">
            <mxPoint x="695" y="424.76" as="targetPoint" />
            <mxPoint x="640" y="544.76" as="sourcePoint" />
          </mxGeometry>
        </mxCell>
        <mxCell id="rN_nmjMCWlHx2FWggs9E-8" value="" style="edgeStyle=orthogonalEdgeStyle;rounded=0;orthogonalLoop=1;jettySize=auto;html=1;" edge="1" parent="1" source="rN_nmjMCWlHx2FWggs9E-10" target="rN_nmjMCWlHx2FWggs9E-28">
          <mxGeometry relative="1" as="geometry" />
        </mxCell>
        <mxCell id="rN_nmjMCWlHx2FWggs9E-9" value="" style="edgeStyle=orthogonalEdgeStyle;rounded=0;orthogonalLoop=1;jettySize=auto;html=1;" edge="1" parent="1" source="rN_nmjMCWlHx2FWggs9E-10" target="rN_nmjMCWlHx2FWggs9E-28">
          <mxGeometry relative="1" as="geometry" />
        </mxCell>
        <mxCell id="rN_nmjMCWlHx2FWggs9E-10" value="E" style="ellipse;whiteSpace=wrap;html=1;aspect=fixed;strokeWidth=2;fontSize=27;fillColor=light-dark(#FFFFFF,#1000FF);fontColor=light-dark(#000000,#FFFFFF);strokeColor=light-dark(#000000,#FFFFFF);" vertex="1" parent="1">
          <mxGeometry x="1285" y="1065" width="80" height="80" as="geometry" />
        </mxCell>
        <mxCell id="rN_nmjMCWlHx2FWggs9E-11" value="N*" style="ellipse;whiteSpace=wrap;html=1;aspect=fixed;strokeWidth=2;fontSize=27;fillColor=light-dark(#FFFFFF,#02B006);fontColor=light-dark(#000000,#FFFFFF);strokeColor=default;align=center;verticalAlign=middle;fontFamily=Helvetica;" vertex="1" parent="1">
          <mxGeometry x="2270" y="820" width="80" height="80" as="geometry" />
        </mxCell>
        <mxCell id="rN_nmjMCWlHx2FWggs9E-33" value="" style="edgeStyle=orthogonalEdgeStyle;rounded=0;orthogonalLoop=1;jettySize=auto;html=1;strokeColor=default;strokeWidth=3;align=center;verticalAlign=middle;fontFamily=Helvetica;fontSize=27;fontColor=light-dark(#000000,#000000);labelBackgroundColor=default;startArrow=oval;startFill=1;endArrow=classic;endSize=6;" edge="1" parent="1" source="rN_nmjMCWlHx2FWggs9E-13" target="rN_nmjMCWlHx2FWggs9E-24">
          <mxGeometry relative="1" as="geometry" />
        </mxCell>
        <mxCell id="rN_nmjMCWlHx2FWggs9E-13" value="A*" style="ellipse;whiteSpace=wrap;html=1;aspect=fixed;strokeWidth=2;fontSize=27;fillColor=light-dark(#FFFFFF,#FF0800);fontColor=light-dark(#000000,#FFFFFF);strokeColor=default;align=center;verticalAlign=middle;fontFamily=Helvetica;" vertex="1" parent="1">
          <mxGeometry x="1655" y="945" width="80" height="80" as="geometry" />
        </mxCell>
        <mxCell id="rN_nmjMCWlHx2FWggs9E-14" value="" style="endArrow=classic;html=1;rounded=0;exitX=1;exitY=0.5;exitDx=0;exitDy=0;entryX=0;entryY=0.5;entryDx=0;entryDy=0;strokeWidth=3;fontSize=27;fontColor=light-dark(#000000,#000000);endSize=6;" edge="1" parent="1" source="rN_nmjMCWlHx2FWggs9E-20" target="rN_nmjMCWlHx2FWggs9E-10">
          <mxGeometry width="50" height="50" relative="1" as="geometry">
            <mxPoint x="1320.0000000000002" y="1105" as="sourcePoint" />
            <mxPoint x="1720" y="1015" as="targetPoint" />
          </mxGeometry>
        </mxCell>
        <mxCell id="rN_nmjMCWlHx2FWggs9E-15" value="" style="edgeStyle=orthogonalEdgeStyle;rounded=0;orthogonalLoop=1;jettySize=auto;html=1;strokeWidth=3;endSize=6;" edge="1" parent="1" source="rN_nmjMCWlHx2FWggs9E-16" target="rN_nmjMCWlHx2FWggs9E-11">
          <mxGeometry relative="1" as="geometry" />
        </mxCell>
        <mxCell id="rN_nmjMCWlHx2FWggs9E-16" value="M*" style="ellipse;whiteSpace=wrap;html=1;aspect=fixed;strokeWidth=2;fontSize=27;fillColor=light-dark(#FFFFFF,#02B006);fontColor=light-dark(#000000,#FFFFFF);strokeColor=default;align=center;verticalAlign=middle;fontFamily=Helvetica;" vertex="1" parent="1">
          <mxGeometry x="2150" y="820" width="80" height="80" as="geometry" />
        </mxCell>
        <mxCell id="rN_nmjMCWlHx2FWggs9E-17" value="&lt;font face=&quot;Courier New&quot;&gt;topic2&lt;/font&gt;" style="text;html=1;align=center;verticalAlign=middle;resizable=0;points=[];autosize=1;strokeColor=none;fillColor=none;fontSize=22;" vertex="1" parent="1">
          <mxGeometry x="2370" y="840" width="100" height="40" as="geometry" />
        </mxCell>
        <mxCell id="rN_nmjMCWlHx2FWggs9E-18" value="&lt;font face=&quot;Courier New&quot;&gt;topic, origin/topic&lt;/font&gt;" style="text;html=1;align=center;verticalAlign=middle;resizable=0;points=[];autosize=1;strokeColor=none;fillColor=none;fontSize=22;" vertex="1" parent="1">
          <mxGeometry x="1990" y="965" width="270" height="40" as="geometry" />
        </mxCell>
        <mxCell id="rN_nmjMCWlHx2FWggs9E-19" value="" style="edgeStyle=orthogonalEdgeStyle;rounded=0;orthogonalLoop=1;jettySize=auto;html=1;dashed=1;strokeWidth=3;" edge="1" parent="1" target="rN_nmjMCWlHx2FWggs9E-20">
          <mxGeometry relative="1" as="geometry">
            <mxPoint x="1070" y="1105" as="sourcePoint" />
            <Array as="points">
              <mxPoint x="1120" y="1105" />
              <mxPoint x="1120" y="1105" />
            </Array>
          </mxGeometry>
        </mxCell>
        <mxCell id="rN_nmjMCWlHx2FWggs9E-20" value="D" style="ellipse;whiteSpace=wrap;html=1;aspect=fixed;strokeWidth=2;fontSize=27;fillColor=light-dark(#FFFFFF,#1000FF);fontColor=light-dark(#000000,#FFFFFF);resizeWidth=0;strokeColor=light-dark(#000000,#FFFFFF);" vertex="1" parent="1">
          <mxGeometry x="1160" y="1065" width="80" height="80" as="geometry" />
        </mxCell>
        <mxCell id="rN_nmjMCWlHx2FWggs9E-21" value="" style="endArrow=classic;html=1;rounded=0;entryX=0;entryY=0.5;entryDx=0;entryDy=0;exitX=1;exitY=0.5;exitDx=0;exitDy=0;strokeWidth=3;startArrow=oval;startFill=1;fontSize=27;fontColor=light-dark(#000000,#000000);endSize=6;" edge="1" parent="1" source="rN_nmjMCWlHx2FWggs9E-28" target="rN_nmjMCWlHx2FWggs9E-22">
          <mxGeometry width="50" height="50" relative="1" as="geometry">
            <mxPoint x="1725" y="1105" as="sourcePoint" />
            <mxPoint x="1950" y="1105" as="targetPoint" />
            <Array as="points">
              <mxPoint x="1490" y="1105" />
            </Array>
          </mxGeometry>
        </mxCell>
        <mxCell id="rN_nmjMCWlHx2FWggs9E-22" value="G" style="ellipse;whiteSpace=wrap;html=1;aspect=fixed;strokeWidth=2;fontSize=27;fillColor=light-dark(#FFFFFF,#1000FF);fontColor=light-dark(#000000,#FFFFFF);strokeColor=light-dark(#000000,#FFFFFF);" vertex="1" parent="1">
          <mxGeometry x="1520" y="1065" width="80" height="80" as="geometry" />
        </mxCell>
        <mxCell id="rN_nmjMCWlHx2FWggs9E-34" value="" style="edgeStyle=orthogonalEdgeStyle;rounded=0;orthogonalLoop=1;jettySize=auto;html=1;strokeColor=default;strokeWidth=3;align=center;verticalAlign=middle;fontFamily=Helvetica;fontSize=27;fontColor=light-dark(#000000,#000000);labelBackgroundColor=default;startArrow=oval;startFill=1;endArrow=classic;endSize=6;" edge="1" parent="1" source="rN_nmjMCWlHx2FWggs9E-24" target="rN_nmjMCWlHx2FWggs9E-30">
          <mxGeometry relative="1" as="geometry" />
        </mxCell>
        <mxCell id="rN_nmjMCWlHx2FWggs9E-24" value="B*" style="ellipse;whiteSpace=wrap;html=1;aspect=fixed;strokeWidth=2;fontSize=27;fillColor=light-dark(#FFFFFF,#FF0800);fontColor=light-dark(#000000,#FFFFFF);strokeColor=default;align=center;verticalAlign=middle;fontFamily=Helvetica;" vertex="1" parent="1">
          <mxGeometry x="1771" y="945" width="80" height="80" as="geometry" />
        </mxCell>
        <mxCell id="rN_nmjMCWlHx2FWggs9E-25" value="" style="edgeStyle=orthogonalEdgeStyle;rounded=0;orthogonalLoop=1;jettySize=auto;html=1;strokeWidth=3;" edge="1" parent="1" source="rN_nmjMCWlHx2FWggs9E-26" target="rN_nmjMCWlHx2FWggs9E-16">
          <mxGeometry relative="1" as="geometry" />
        </mxCell>
        <mxCell id="rN_nmjMCWlHx2FWggs9E-26" value="L*" style="ellipse;whiteSpace=wrap;html=1;aspect=fixed;strokeWidth=2;fontSize=27;fillColor=light-dark(#FFFFFF,#02B006);fontColor=light-dark(#000000,#FFFFFF);strokeColor=default;align=center;verticalAlign=middle;fontFamily=Helvetica;" vertex="1" parent="1">
          <mxGeometry x="2030" y="820" width="80" height="80" as="geometry" />
        </mxCell>
        <mxCell id="rN_nmjMCWlHx2FWggs9E-27" value="" style="endArrow=classic;html=1;rounded=0;entryX=0;entryY=0.5;entryDx=0;entryDy=0;exitX=1;exitY=0.5;exitDx=0;exitDy=0;strokeWidth=3;startArrow=oval;startFill=1;fontSize=27;fontColor=light-dark(#000000,#000000);endSize=6;" edge="1" parent="1" source="rN_nmjMCWlHx2FWggs9E-10" target="rN_nmjMCWlHx2FWggs9E-28">
          <mxGeometry width="50" height="50" relative="1" as="geometry">
            <mxPoint x="1595" y="1105" as="sourcePoint" />
            <mxPoint x="1760" y="1105" as="targetPoint" />
          </mxGeometry>
        </mxCell>
        <mxCell id="rN_nmjMCWlHx2FWggs9E-28" value="F" style="ellipse;whiteSpace=wrap;html=1;aspect=fixed;strokeWidth=2;fontSize=27;fillColor=light-dark(#FFFFFF,#1000FF);fontColor=light-dark(#000000,#FFFFFF);strokeColor=light-dark(#000000,#FFFFFF);" vertex="1" parent="1">
          <mxGeometry x="1407" y="1065" width="80" height="80" as="geometry" />
        </mxCell>
        <mxCell id="rN_nmjMCWlHx2FWggs9E-29" value="&lt;font face=&quot;Courier New&quot;&gt;main&lt;/font&gt;" style="text;html=1;align=center;verticalAlign=middle;resizable=0;points=[];autosize=1;strokeColor=none;fillColor=none;fontSize=22;" vertex="1" parent="1">
          <mxGeometry x="1630" y="1085" width="80" height="40" as="geometry" />
        </mxCell>
        <mxCell id="rN_nmjMCWlHx2FWggs9E-30" value="C*" style="ellipse;whiteSpace=wrap;html=1;aspect=fixed;strokeWidth=2;fontSize=27;fillColor=light-dark(#FFFFFF,#FF0800);fontColor=light-dark(#000000,#FFFFFF);strokeColor=default;align=center;verticalAlign=middle;fontFamily=Helvetica;" vertex="1" parent="1">
          <mxGeometry x="1885" y="945" width="80" height="80" as="geometry" />
        </mxCell>
        <mxCell id="rN_nmjMCWlHx2FWggs9E-35" value="" style="edgeStyle=orthogonalEdgeStyle;rounded=0;orthogonalLoop=1;jettySize=auto;html=1;exitX=1;exitY=0.5;exitDx=0;exitDy=0;entryX=0;entryY=0.5;entryDx=0;entryDy=0;strokeColor=default;strokeWidth=3;align=center;verticalAlign=middle;fontFamily=Helvetica;fontSize=27;fontColor=light-dark(#000000,#000000);labelBackgroundColor=default;startArrow=oval;startFill=1;endArrow=classic;endSize=6;curved=1;" edge="1" parent="1" source="rN_nmjMCWlHx2FWggs9E-22" target="rN_nmjMCWlHx2FWggs9E-13">
          <mxGeometry relative="1" as="geometry">
            <mxPoint x="1790" y="1100" as="sourcePoint" />
            <mxPoint x="1856" y="1100" as="targetPoint" />
          </mxGeometry>
        </mxCell>
        <mxCell id="rN_nmjMCWlHx2FWggs9E-36" value="" style="edgeStyle=orthogonalEdgeStyle;rounded=0;orthogonalLoop=1;jettySize=auto;html=1;exitX=1;exitY=0.5;exitDx=0;exitDy=0;entryX=0;entryY=0.5;entryDx=0;entryDy=0;strokeColor=default;strokeWidth=3;align=center;verticalAlign=middle;fontFamily=Helvetica;fontSize=27;fontColor=light-dark(#000000,#000000);labelBackgroundColor=default;startArrow=oval;startFill=1;endArrow=classic;endSize=6;curved=1;" edge="1" parent="1" source="rN_nmjMCWlHx2FWggs9E-30" target="rN_nmjMCWlHx2FWggs9E-26">
          <mxGeometry relative="1" as="geometry">
            <mxPoint x="2050" y="1000" as="sourcePoint" />
            <mxPoint x="2116" y="1000" as="targetPoint" />
          </mxGeometry>
        </mxCell>
      </root>
    </mxGraphModel>
  </diagram>
</mxfile>
